<?xml version="1.0" encoding="UTF-8"?>
<svg id="Camada_1" data-name="Camada 1" xmlns="http://www.w3.org/2000/svg" viewBox="0 0 83.43 15.92">
  <defs>
    <style>
      .cls-1 {
        fill: #02073e;
      }
    </style>
  </defs>
  <path class="cls-1" d="M0,15.65V.26h5.54c1.23,0,2.25.21,3.06.63.81.42,1.41.98,1.8,1.68s.59,1.51.59,2.42c0,.85-.19,1.63-.57,2.34-.38.71-.97,1.28-1.78,1.71-.81.43-1.84.65-3.1.65h-2.9v5.96H0ZM2.64,7.54h2.75c1.04,0,1.79-.23,2.24-.69.45-.46.68-1.08.68-1.86s-.23-1.44-.68-1.89c-.45-.45-1.2-.68-2.24-.68h-2.75v5.12Z"/>
  <path class="cls-1" d="M18.44,15.92c-1.11,0-2.1-.2-2.97-.59-.87-.4-1.54-.96-2.02-1.69-.48-.73-.73-1.6-.75-2.62h2.79c0,.51.12.97.36,1.37.24.4.58.72,1.01.96.43.23.96.35,1.57.35.53,0,.99-.08,1.37-.25.39-.17.69-.41.9-.73.21-.31.32-.68.32-1.11,0-.48-.11-.88-.34-1.2-.23-.31-.54-.58-.93-.8-.4-.22-.85-.41-1.36-.58-.51-.17-1.06-.35-1.63-.54-1.22-.41-2.13-.93-2.75-1.57-.62-.64-.92-1.49-.92-2.56,0-.89.21-1.66.64-2.31.42-.64,1.02-1.15,1.79-1.51.77-.36,1.66-.54,2.67-.54s1.92.18,2.69.55c.77.37,1.38.88,1.82,1.53.45.65.68,1.43.69,2.34h-2.81c-.01-.38-.12-.74-.31-1.07-.19-.33-.47-.6-.82-.81-.36-.21-.8-.32-1.31-.32-.44-.01-.83.05-1.18.21-.34.15-.62.37-.81.66s-.3.64-.3,1.07.09.75.27,1.02c.18.27.45.5.8.68s.76.36,1.23.52c.47.16.98.34,1.54.53.76.25,1.45.55,2.08.91.62.36,1.12.82,1.48,1.4.37.57.55,1.31.55,2.22,0,.79-.21,1.53-.62,2.21-.41.68-1.01,1.23-1.8,1.65-.79.42-1.78.63-2.97.63Z"/>
  <path class="cls-1" d="M30.01,15.92c-.91,0-1.66-.15-2.26-.46-.6-.31-1.05-.72-1.34-1.23-.29-.51-.44-1.07-.44-1.67,0-.7.18-1.31.54-1.82.36-.51.89-.91,1.59-1.2s1.57-.43,2.59-.43h2.79c0-.59-.08-1.07-.24-1.46-.16-.39-.41-.68-.75-.87-.34-.19-.77-.29-1.3-.29-.6,0-1.11.14-1.54.41-.43.27-.69.69-.79,1.24h-2.59c.09-.79.35-1.47.79-2.03.44-.56,1.02-1,1.75-1.32.73-.31,1.52-.47,2.39-.47,1.04,0,1.93.18,2.66.54.73.36,1.29.87,1.68,1.54.39.67.58,1.47.58,2.41v6.86h-2.24l-.26-1.78c-.15.29-.33.56-.56.81-.23.25-.49.47-.78.65-.29.18-.63.33-1,.43-.37.1-.8.15-1.26.15ZM30.6,13.83c.42,0,.8-.08,1.13-.23.33-.15.62-.37.86-.66.24-.29.43-.6.56-.96.13-.35.22-.73.26-1.12v-.04h-2.44c-.51,0-.94.07-1.28.2-.34.13-.58.31-.73.54-.15.23-.22.49-.22.8s.07.57.22.79c.15.22.36.39.64.51.28.12.61.18.99.18Z"/>
  <path class="cls-1" d="M38.93,15.65V4.57h2.33l.2,1.85c.34-.64.82-1.16,1.45-1.54.63-.38,1.38-.57,2.24-.57s1.66.19,2.29.56c.63.37,1.12.92,1.46,1.64s.52,1.61.52,2.68v6.46h-2.64v-6.22c0-.92-.21-1.63-.62-2.13-.41-.5-1.02-.75-1.82-.75-.53,0-1,.12-1.42.37-.42.25-.75.61-.99,1.09-.24.48-.36,1.05-.36,1.73v5.91h-2.64Z"/>
  <path class="cls-1" d="M57.02,15.65c-.75,0-1.4-.12-1.95-.35-.55-.23-.98-.62-1.29-1.17-.31-.54-.46-1.28-.46-2.2v-5.14h-1.89v-2.22h1.89l.31-2.92h2.33v2.92h3.01v2.22h-3.01v5.14c0,.56.12.94.36,1.15.24.21.65.32,1.22.32h1.36v2.24h-1.89Z"/>
  <path class="cls-1" d="M66.35,15.92c-1.05,0-2-.25-2.85-.74-.84-.49-1.5-1.17-1.98-2.04-.48-.87-.71-1.87-.71-3s.24-2.17.73-3.04c.48-.87,1.15-1.55,1.99-2.04.84-.49,1.79-.74,2.85-.74s2,.25,2.85.74c.84.49,1.5,1.17,1.98,2.03.48.87.71,1.88.71,3.03s-.24,2.17-.73,3.03c-.48.87-1.15,1.54-1.99,2.03-.84.49-1.79.74-2.85.74ZM66.35,13.65c.53,0,1.01-.13,1.44-.4.43-.26.78-.66,1.04-1.19.26-.53.4-1.18.4-1.96s-.13-1.43-.39-1.95-.6-.91-1.03-1.18c-.43-.26-.91-.4-1.44-.4s-.99.13-1.43.4c-.44.26-.79.66-1.05,1.18s-.4,1.17-.4,1.95.13,1.43.4,1.96c.26.53.61.92,1.04,1.19.43.26.91.4,1.42.4Z"/>
  <path class="cls-1" d="M78.9,15.92c-.98,0-1.84-.16-2.56-.47s-1.3-.75-1.71-1.32c-.42-.56-.66-1.21-.74-1.95h2.64c.07.31.21.59.4.85.19.26.45.46.78.6.33.15.72.22,1.18.22s.8-.06,1.08-.19.48-.29.62-.49c.13-.21.2-.42.2-.66,0-.35-.1-.62-.29-.81-.19-.19-.47-.34-.82-.45-.36-.11-.79-.22-1.29-.32-.53-.1-1.04-.23-1.53-.38-.49-.15-.93-.35-1.32-.58-.39-.23-.7-.53-.92-.9-.23-.37-.34-.81-.34-1.34,0-.64.17-1.22.52-1.74.34-.51.84-.92,1.5-1.22.65-.3,1.43-.45,2.34-.45,1.29,0,2.32.3,3.09.89.77.59,1.22,1.43,1.35,2.5h-2.51c-.07-.41-.28-.73-.62-.96-.34-.23-.78-.34-1.34-.34s-1.01.11-1.31.32c-.3.21-.45.49-.45.85,0,.23.09.44.28.62.18.18.45.33.8.45.35.12.78.25,1.3.36.82.16,1.55.35,2.18.57.63.22,1.13.54,1.49.97.37.43.55,1.03.55,1.8.01.7-.17,1.33-.54,1.87-.37.54-.9.96-1.57,1.26-.67.3-1.48.45-2.42.45Z"/>
</svg>